<?xml version="1.0" encoding="UTF-8"?>
<svg xmlns="http://www.w3.org/2000/svg" xmlns:xlink="http://www.w3.org/1999/xlink" width="1536pt" height="1536pt" viewBox="0 0 1536 1536" version="1.1">
<g id="surface1">
<path style=" stroke:none;fill-rule:nonzero;fill:rgb(100%,100%,100%);fill-opacity:1;" d="M 768 340.472656 L 1152 556.171875 L 1152 979.828125 L 768 1195.527344 L 384 979.828125 L 384 556.171875 L 768 340.472656 M 1344 1056 C 1344 1080.328125 1330.558594 1101.449219 1310.066406 1112.308594 L 804.480469 1396.472656 C 794.25 1404.152344 781.441406 1407.988281 768 1407.988281 C 754.558594 1407.988281 741.75 1404.152344 731.519531 1396.472656 L 225.933594 1112.308594 C 205.441406 1101.449219 192 1080.328125 192 1056 L 192 480 C 192 455.671875 205.441406 434.550781 225.933594 423.691406 L 731.519531 139.527344 C 741.75 131.847656 754.558594 128.011719 768 128.011719 C 781.441406 128.011719 794.25 131.847656 804.480469 139.527344 L 1310.066406 423.691406 C 1330.558594 434.550781 1344 455.671875 1344 480 L 1344 1056 M 768 265.589844 L 320.011719 517.769531 L 320.011719 1018.230469 L 768 1270.410156 L 1215.988281 1018.230469 L 1215.988281 517.769531 Z M 768 265.589844 "/>
</g>
</svg>
